<?xml version="1.0" encoding="UTF-8"?>
<svg id="Layer_1" xmlns="http://www.w3.org/2000/svg" version="1.1" xmlns:xlink="http://www.w3.org/1999/xlink" viewBox="0 0 825.5 301.5">
  <!-- Generator: Adobe Illustrator 30.1.0, SVG Export Plug-In . SVG Version: 2.1.1 Build 136)  -->
  <defs>
    <style>
      .st0 {
        fill: #ccd4ec;
      }

      .st1 {
        fill: #54565a;
      }

      .st2 {
        fill: #384a9c;
      }

      .st3, .st4 {
        fill: none;
      }

      .st5 {
        clip-path: url(#clippath-1);
      }

      .st6, .st7 {
        isolation: isolate;
      }

      .st8 {
        fill: #949fd0;
      }

      .st9 {
        clip-path: url(#clippath-3);
      }

      .st7 {
        font-family: OpenSans, 'Open Sans';
        font-size: 15px;
      }

      .st4 {
        stroke: #384a9c;
        stroke-miterlimit: 10;
        stroke-width: 3px;
      }

      .st10 {
        clip-path: url(#clippath-2);
      }

      .st11 {
        clip-path: url(#clippath);
      }
    </style>
    <clipPath id="clippath">
      <rect class="st3" x="710.7" y="22.8" width="100" height="41.4"/>
    </clipPath>
    <clipPath id="clippath-1">
      <rect class="st3" x="710.7" y="22.8" width="100" height="41.4"/>
    </clipPath>
    <clipPath id="clippath-2">
      <path class="st3" d="M721.3,22.8l5.5,6.1,52.3,10.4v.6l-50-8.6,4.4,4.8,45.7,4.5v.6c-14.6-1-29.1-2-43.8-3l3.3,3.7c13.5,0,26.9,0,40.4,0v.5h5.4v-1.8c0-1.4-1.1-2.5-2.5-2.5h-2.9v.6l-57.8-15.8Z"/>
    </clipPath>
    <clipPath id="clippath-3">
      <rect class="st3" x="710.7" y="22.8" width="100" height="41.4"/>
    </clipPath>
  </defs>
  <polygon class="st1" points="731 135.2 789.1 135.2 825.5 174.7 825.5 228.2 787.6 266.1 731 266.1 696.2 231.3 695.8 174.7 731 135.2"/>
  <path class="st1" d="M678.8,289.6c-.2,0-.5,0-.7,0-11.7-.7-17.2-19.9-23.5-42.1-7.5-26.3-16-56.1-36.3-63-19.9-6.8-38.5,7.1-52,17.2l-1.6-2.1c14-10.5,33.2-24.8,54.4-17.6,21.7,7.4,30.3,37.9,38,64.8,6,21.2,11.3,39.6,21.1,40.2,8.6.5,18.1-10.3,28.5-32.1l2.4,1.1c-10.8,22.6-20.7,33.6-30.3,33.6h0Z"/>
  <path class="st0" d="M532,192.5h37.8v15.7h-37.8c-4.3,0-7.9-3.5-7.9-7.9h0c0-4.3,3.5-7.8,7.8-7.8Z"/>
  <rect class="st8" x="209.5" y="95.1" width="62.1" height="205.5"/>
  <g>
    <path class="st2" d="M462.9,215.5c-1.2,0-2.9-1.4-7.1-20l1.7-.4c3.2,14.1,4.8,17.6,5.5,18.4,1-2.1,1.1-12.2,1.1-19,.2-14.7.5-17.1,2.1-17.2,1.7-.2,2.5,2.8,5,15.7,1.3,6.8,3.3,16.8,4.7,18.4,1.1-1.7,1.9-11.4,2.4-17.9,1.2-14.9,1.9-19.3,4-19.4h0c2.3,0,3,5.4,4.2,19.4.5,6.3,1.2,14.8,2.2,16.8.9-1.7,1.8-9,2.5-14.4,1.7-13.3,2.9-21.4,6-21.8,2.2-.3,2.6,2.9,3.4,9.1.4,2.7.8,6.2,1.5,9.8.6,3.3,3.5,5.8,7,5.8h2.3v1.7h-2.3c-4.3,0-7.9-3-8.7-7.2-.7-3.7-1.1-7.2-1.5-9.9-.4-3.4-.9-7.1-1.5-7.6-1.9.2-3.5,13.3-4.4,20.3-1.5,11.9-2.2,16-4.2,16.2-2.1.2-2.8-3.8-4-18.6-.5-6.4-1.3-15.8-2.4-17.6-1.1,1.8-1.8,10.9-2.3,17.6-1.2,15.1-1.9,19.6-4.1,19.7-2.2.1-3.5-4.6-6.5-19.9-1-5.1-2.2-11.2-3-13.5-.5,2.6-.5,9.2-.6,14.7-.2,16-.5,20.6-2.7,20.9-.1,0-.2,0-.3,0h0Z"/>
    <polygon class="st2" points="508 202.6 510.9 199.6 508 196.7 510.5 196.7 513.4 199.6 510.5 202.6 508 202.6"/>
  </g>
  <g>
    <path class="st2" d="M291.7,195.3c-1.2,0-2.9-1.4-7.1-20l1.7-.4c3.2,14.1,4.8,17.6,5.5,18.4,1-2.1,1.1-12.2,1.1-19,.2-14.7.5-17.1,2.1-17.2,1.7-.2,2.5,2.8,5,15.7,1.3,6.8,3.3,16.8,4.7,18.4,1.1-1.7,1.9-11.4,2.4-18,1.2-14.9,1.9-19.3,4-19.4h0c2.3,0,3,5.4,4.2,19.4.5,6.3,1.2,14.8,2.2,16.8.9-1.7,1.8-9,2.5-14.4,1.7-13.3,2.9-21.4,6-21.8,2.2-.3,2.6,2.9,3.4,9.1.4,2.7.8,6.2,1.5,9.8.6,3.3,3.5,5.8,7,5.8h2.3v1.7h-2.3c-4.3,0-7.9-3-8.7-7.2-.7-3.7-1.1-7.2-1.5-9.9-.4-3.4-.9-7.1-1.5-7.6-1.9.2-3.5,13.3-4.4,20.3-1.5,11.9-2.2,16-4.2,16.2-2.1.2-2.8-3.8-4-18.6-.5-6.4-1.3-15.8-2.4-17.6-1.1,1.8-1.8,10.9-2.3,17.6-1.2,15.1-1.9,19.6-4.1,19.7-2.2.1-3.5-4.6-6.5-19.9-1-5.1-2.2-11.2-3-13.5-.5,2.6-.5,9.2-.6,14.7-.2,16-.5,20.6-2.7,20.9-.1,0-.2,0-.3,0h0Z"/>
    <polygon class="st2" points="336.8 182.4 339.7 179.4 336.8 176.5 339.3 176.5 342.2 179.4 339.3 182.4 336.8 182.4"/>
  </g>
  <path class="st8" d="M273.1,301.5h-64.7V47.5h64.7v254ZM210.9,298.9h59.5V50.1h-59.5v248.8h0Z"/>
  <g>
    <path class="st2" d="M359.7,195.3c-1.2,0-2.9-1.4-7.1-20l1.7-.4c3.2,14.1,4.8,17.6,5.5,18.4,1-2.1,1.1-12.2,1.1-19,.2-14.7.5-17.1,2.1-17.2,1.7-.2,2.5,2.8,5,15.7,1.3,6.8,3.3,16.8,4.7,18.4,1.1-1.7,1.9-11.4,2.4-18,1.2-14.9,1.9-19.3,4-19.4h0c2.3,0,3,5.4,4.2,19.4.5,6.3,1.2,14.8,2.2,16.8.9-1.7,1.8-9,2.5-14.4,1.7-13.3,2.9-21.4,6-21.8,2.2-.3,2.6,2.9,3.4,9.1.4,2.7.8,6.2,1.5,9.8.6,3.3,3.5,5.8,7,5.8h2.3v1.7h-2.3c-4.3,0-7.9-3-8.7-7.2-.7-3.7-1.1-7.2-1.5-9.9-.4-3.4-.9-7.1-1.5-7.6-1.9.2-3.5,13.3-4.4,20.3-1.5,11.9-2.2,16-4.2,16.2-2.1.2-2.8-3.8-4-18.6-.5-6.4-1.3-15.8-2.4-17.6-1.1,1.8-1.8,10.9-2.3,17.6-1.2,15.1-1.9,19.6-4.1,19.7-2.2.1-3.5-4.6-6.5-19.9-1-5.1-2.2-11.2-3-13.5-.5,2.6-.5,9.2-.6,14.7-.2,16-.5,20.6-2.7,20.9-.1,0-.2,0-.3,0h0Z"/>
    <polygon class="st2" points="404.8 182.4 407.7 179.4 404.8 176.5 407.3 176.5 410.2 179.4 407.3 182.4 404.8 182.4"/>
  </g>
  <g>
    <path class="st2" d="M320.7,242.3c-1.2,0-2.9-1.4-7.1-20l1.7-.4c3.2,14.1,4.8,17.6,5.5,18.4,1-2.1,1.1-12.2,1.1-19,.2-14.7.5-17.1,2.1-17.2,1.7-.2,2.5,2.8,5,15.7,1.3,6.8,3.3,16.8,4.7,18.4,1.1-1.7,1.9-11.4,2.4-18,1.2-14.9,1.9-19.3,4-19.4h0c2.3,0,3,5.4,4.2,19.4.5,6.3,1.2,14.8,2.2,16.8.9-1.7,1.8-9,2.5-14.4,1.7-13.3,2.9-21.4,6-21.8,2.2-.3,2.6,2.9,3.4,9.1.4,2.7.8,6.2,1.5,9.8.6,3.3,3.5,5.8,7,5.8h2.3v1.7h-2.3c-4.3,0-7.9-3-8.7-7.2-.7-3.7-1.1-7.2-1.5-9.9-.4-3.4-.9-7.1-1.5-7.6-1.9.2-3.5,13.3-4.4,20.3-1.5,11.9-2.2,16-4.2,16.2-2.1.2-2.8-3.8-4-18.6-.5-6.4-1.3-15.8-2.4-17.6-1.1,1.8-1.8,10.9-2.3,17.6-1.2,15.1-1.9,19.6-4.1,19.7-2.2.1-3.5-4.6-6.5-19.9-1-5.1-2.2-11.2-3-13.5-.5,2.6-.5,9.2-.6,14.7-.2,16-.5,20.6-2.7,20.9-.1,0-.2,0-.3,0h0Z"/>
    <polygon class="st2" points="365.8 229.4 368.7 226.4 365.8 223.5 368.3 223.5 371.2 226.4 368.3 229.4 365.8 229.4"/>
  </g>
  <rect class="st1" x="424" y="95.2" width="18" height="188"/>
  <rect class="st1" y="154.2" width="120" height="61"/>
  <line class="st4" x1="124" y1="184.7" x2="202.3" y2="184.7"/>
  <g class="st6">
    <text class="st7" transform="translate(26.1 139.8)"><tspan x="0" y="0">CW Laser</tspan></text>
  </g>
  <g class="st6">
    <text class="st7" transform="translate(415.4 81.9)"><tspan x="0" y="0">Filter</tspan></text>
  </g>
  <g class="st6">
    <text class="st7" transform="translate(547.4 254.9)"><tspan x="0" y="0">Optical Fibre</tspan></text>
  </g>
  <g class="st6">
    <text class="st7" transform="translate(712.4 124.9)"><tspan x="0" y="0">Spectrometer</tspan></text>
  </g>
  <g class="st6">
    <text class="st7" transform="translate(213.2 12.9)"><tspan x="0" y="0">Sample </tspan></text>
    <text class="st7" transform="translate(202.4 30.9)"><tspan x="0" y="0">(In cuvette)</tspan></text>
  </g>
  <g id="blue_watermark">
    <g class="st11">
      <g class="st5">
        <path class="st8" d="M805.7,55.8c0,.7-.2,2.3-1.4,3.3-1.2,1-2.6,1.2-3.9,1.1-1.3-.2-2-1.4-2-2.4,0-1.1.5-2,2.1-2.4,1.6-.4,3.5-.7,5.2-1.5v2ZM806.2,43.8c-4-.9-7.2-.4-8.8.4-1.6.8-3.3,2.3-3.4,4.7h5.1s.6-1.4,2.7-1.4c2.2,0,3.5.5,3.8,1.4.2,1-.6,1.7-1.9,2-1.3.3-3.5.6-5,.9-1.5.3-4.2,1.4-4.8,3.2-.7,1.8-.7,4.2,0,5.9.7,1.7,3.2,3.4,6.4,3.3,3.3,0,5.9-.3,7.8-2.1,1.9-1.7,2.5-3.6,2.5-5.4s0-7.6,0-8.2-.5-3.8-4.5-4.7"/>
        <path class="st8" d="M726.8,28.9l52.3,10.4v.6l-50-8.6,4.4,4.8,45.7,4.5v.6c-14.6-1-29.1-2-43.8-3l3.3,3.7c13.5,0,26.9,0,40.4,0v.5h5.4v-1.8c0-1.4-1.1-2.5-2.5-2.5h-2.9v.6l-57.8-15.8,5.5,6.1Z"/>
      </g>
      <g class="st10">
        <rect class="st8" x="721.3" y="22.8" width="63.2" height="19.6"/>
      </g>
      <g class="st9">
        <path class="st8" d="M789.1,38.2h-2.9v26h5.4v-23.6c0-1.4-1.1-2.5-2.5-2.5"/>
        <path class="st8" d="M782,44.1h-2.8v20.1h5.3v-17.7c0-1.3-1.1-2.4-2.4-2.4"/>
        <path class="st8" d="M774.1,53.2c-1.8-1.1-4.1-1.5-6.7-2.1s-3.3-1.3-3.3-2c0-.6.4-1.3,1.1-1.5.8-.2,2-.3,3.3,0,1.3.3,1.9,1.5,2.3,1.8.3.3.9.5,1.3.5h3.7c-.1-2.2-.8-3.8-2.4-5-1.6-1.2-3.5-1.8-7.5-1.6-4,.2-6.1,2.3-6.8,4.6-.7,2.3,0,4.7,1.9,6,1.9,1.2,5,1.8,6.9,2.2,1.9.4,3.4,1,3.3,2.3,0,1.3-2.2,1.9-4.8,1.6-2.5-.3-2.8-2.9-2.8-2.9h-5.1c-.2,3.3,1.4,5.2,3.5,6.1,2.1,1,5.6,1.3,9.4.5,3.8-.8,5.2-3.5,5.2-5.9,0-2.4-.5-3.6-2.3-4.7"/>
        <path class="st8" d="M754.3,53.2c-1.8-1.1-4.1-1.5-6.7-2.1s-3.3-1.3-3.3-2c0-.6.4-1.3,1.1-1.5.8-.2,2-.3,3.3,0,1.3.3,1.9,1.5,2.3,1.8.3.3.9.5,1.3.5h3.7c-.1-2.2-.8-3.8-2.4-5-1.6-1.2-3.5-1.8-7.5-1.6-4,.2-6.1,2.3-6.8,4.6-.7,2.3,0,4.7,1.9,6,1.9,1.2,5,1.8,6.9,2.2,1.9.4,3.4,1,3.3,2.3,0,1.3-2.2,1.9-4.8,1.6-2.5-.3-2.8-2.9-2.8-2.9h-5.1c-.2,3.3,1.4,5.2,3.5,6.1,2.1,1,5.6,1.3,9.4.5,3.8-.8,5.2-3.5,5.2-5.9,0-2.4-.5-3.6-2.3-4.7"/>
        <path class="st8" d="M723.5,59.6c-5.2,0-7.5-4.1-7.5-9s2.5-9,7.5-9,7.5,4,7.5,9-2.3,9-7.5,9M723.6,36.9c-8.6,0-12.9,6.1-12.9,13.7s3.9,13.7,12.9,13.7,12.9-6.2,12.9-13.7-4.3-13.7-12.9-13.7"/>
      </g>
    </g>
  </g>
</svg>